<svg xmlns="http://www.w3.org/2000/svg" width="1400" height="900" viewBox="0 0 1400 900" fill="none">
  <rect width="1400" height="900" fill="#0B0F17"/>
  <rect width="1400" height="900" fill="url(#bg)"/>
  <defs>
    <linearGradient id="bg" x1="0" y1="0" x2="1400" y2="900" gradientUnits="userSpaceOnUse">
      <stop stop-color="#101827"/>
      <stop offset="0.55" stop-color="#0B0F17"/>
      <stop offset="1" stop-color="#141C2B"/>
    </linearGradient>
    <linearGradient id="accent" x1="0" y1="0" x2="1" y2="1">
      <stop stop-color="#AEBBD3"/>
      <stop offset="1" stop-color="#6E84A8"/>
    </linearGradient>
  </defs>
  <rect x="72" y="48" width="1256" height="72" rx="18" fill="rgba(255,255,255,0.03)" stroke="rgba(255,255,255,0.06)"/>
  <rect x="104" y="74" width="120" height="20" rx="10" fill="url(#accent)" opacity="0.85"/>
  <rect x="860" y="78" width="72" height="12" rx="6" fill="rgba(255,255,255,0.18)"/>
  <rect x="952" y="78" width="72" height="12" rx="6" fill="rgba(255,255,255,0.12)"/>
  <rect x="1044" y="78" width="72" height="12" rx="6" fill="rgba(255,255,255,0.12)"/>
  <rect x="1136" y="68" width="148" height="32" rx="16" fill="#AEBBD3"/>
  <rect x="180" y="220" width="520" height="28" rx="14" fill="rgba(174,187,211,0.18)"/>
  <rect x="180" y="270" width="680" height="54" rx="12" fill="rgba(255,255,255,0.92)"/>
  <rect x="180" y="344" width="560" height="54" rx="12" fill="rgba(255,255,255,0.72)"/>
  <rect x="180" y="430" width="420" height="18" rx="9" fill="rgba(255,255,255,0.22)"/>
  <rect x="180" y="468" width="360" height="18" rx="9" fill="rgba(255,255,255,0.16)"/>
  <rect x="180" y="530" width="168" height="48" rx="24" fill="#AEBBD3"/>
  <rect x="364" y="530" width="148" height="48" rx="24" fill="rgba(255,255,255,0.06)" stroke="rgba(255,255,255,0.18)"/>
  <rect x="860" y="210" width="420" height="420" rx="28" fill="rgba(255,255,255,0.04)" stroke="rgba(255,255,255,0.08)"/>
  <rect x="900" y="250" width="340" height="180" rx="18" fill="url(#accent)" opacity="0.22"/>
  <rect x="900" y="452" width="220" height="14" rx="7" fill="rgba(255,255,255,0.18)"/>
  <rect x="900" y="482" width="280" height="14" rx="7" fill="rgba(255,255,255,0.12)"/>
  <rect x="900" y="512" width="180" height="14" rx="7" fill="rgba(255,255,255,0.1)"/>
  <rect x="72" y="690" width="1256" height="162" rx="24" fill="rgba(255,255,255,0.03)" stroke="rgba(255,255,255,0.05)"/>
  <rect x="104" y="728" width="180" height="16" rx="8" fill="rgba(255,255,255,0.16)"/>
  <rect x="104" y="770" width="260" height="52" rx="14" fill="rgba(255,255,255,0.05)"/>
  <rect x="392" y="770" width="260" height="52" rx="14" fill="rgba(255,255,255,0.05)"/>
  <rect x="680" y="770" width="260" height="52" rx="14" fill="rgba(255,255,255,0.05)"/>
  <rect x="968" y="770" width="260" height="52" rx="14" fill="rgba(255,255,255,0.05)"/>
</svg>
